<svg xmlns="http://www.w3.org/2000/svg" viewBox="0 0 64 64" xml:space="preserve"><path d="M22.984 12.75h40a1 1 0 1 0 0-2h-40a1 1 0 1 0 0 2zM62.984 31.296h-40a1 1 0 1 0 0 2h40a1 1 0 1 0 0-2zM62.984 51.25h-40a1 1 0 1 0 0 2h40a1 1 0 1 0 0-2zM5.984 5.782A5.975 5.975 0 0 0 .016 11.75a5.975 5.975 0 0 0 5.968 5.968 5.975 5.975 0 0 0 5.968-5.968 5.975 5.975 0 0 0-5.968-5.968zm0 10a4.036 4.036 0 0 1-4.032-4.032 4.036 4.036 0 0 1 4.032-4.032 4.036 4.036 0 0 1 4.032 4.032 4.037 4.037 0 0 1-4.032 4.032zM5.984 26.328a5.975 5.975 0 0 0-5.968 5.968 5.975 5.975 0 0 0 5.968 5.968 5.975 5.975 0 0 0 5.968-5.968 5.975 5.975 0 0 0-5.968-5.968zm0 10a4.036 4.036 0 0 1-4.032-4.032 4.036 4.036 0 0 1 4.032-4.032 4.036 4.036 0 0 1 4.032 4.032 4.037 4.037 0 0 1-4.032 4.032zM5.984 46.282A5.975 5.975 0 0 0 .016 52.25a5.975 5.975 0 0 0 5.968 5.968 5.975 5.975 0 0 0 5.968-5.968 5.975 5.975 0 0 0-5.968-5.968zm0 10a4.036 4.036 0 0 1-4.032-4.032 4.036 4.036 0 0 1 4.032-4.032 4.036 4.036 0 0 1 4.032 4.032 4.037 4.037 0 0 1-4.032 4.032z"/></svg>